<svg width="15" height="16" viewBox="0 0 15 16" fill="none" xmlns="http://www.w3.org/2000/svg">
<path d="M13.6719 4.53375C14.0052 5.09625 14.2526 5.67959 14.4141 6.28375C14.5755 6.88792 14.6562 7.52334 14.6562 8.19C14.6562 8.85667 14.5755 9.49209 14.4141 10.0963C14.2526 10.7004 14.0052 11.2838 13.6719 11.8463C13.3281 12.4192 12.9375 12.9244 12.5 13.3619C12.0625 13.7994 11.5573 14.19 10.9844 14.5338C10.4219 14.8671 9.83854 15.1145 9.23438 15.2759C8.63021 15.4374 7.99479 15.5181 7.32812 15.5181C6.66146 15.5181 6.02604 15.4374 5.42188 15.2759C4.81771 15.1145 4.23438 14.8671 3.67188 14.5338C3.09896 14.19 2.59375 13.7994 2.15625 13.3619C1.71875 12.9244 1.32812 12.4192 0.984375 11.8463C0.661458 11.2838 0.416667 10.7004 0.25 10.0963C0.0833333 9.49209 0 8.85667 0 8.19C0 7.52334 0.0833333 6.88792 0.25 6.28375C0.416667 5.67959 0.661458 5.09625 0.984375 4.53375C1.31771 3.96084 1.70573 3.45563 2.14844 3.01813C2.59115 2.58063 3.09896 2.19 3.67188 1.84625C4.23438 1.51292 4.81771 1.26552 5.42188 1.10406C6.02604 0.942607 6.66146 0.861877 7.32812 0.861877C7.99479 0.861877 8.63021 0.942607 9.23438 1.10406C9.83854 1.26552 10.4219 1.51292 10.9844 1.84625C11.5573 2.19 12.0625 2.58063 12.5 3.01813C12.9375 3.45563 13.3281 3.96084 13.6719 4.53375ZM5.59375 9.92438L3.85938 8.19C3.73438 8.05459 3.56771 7.98688 3.35938 7.98688C3.15104 7.98688 2.96354 8.05459 2.79688 8.19C2.66146 8.32542 2.59375 8.49469 2.59375 8.69781C2.59375 8.90094 2.66146 9.09104 2.79688 9.26813L5.0625 11.5181C5.19792 11.6535 5.36458 11.7213 5.5625 11.7213C5.76042 11.7213 5.92708 11.6535 6.0625 11.5181L11.7969 5.98688C11.9323 5.85146 12 5.68219 12 5.47906C12 5.27594 11.9323 5.09104 11.7969 4.92438C11.6615 4.78896 11.4896 4.72125 11.2812 4.72125C11.0729 4.72125 10.8906 4.78896 10.7344 4.92438L5.59375 9.92438Z" fill="#3F6341"/>
</svg>
