<svg width="62" height="62" viewBox="0 0 62 62" fill="none" xmlns="http://www.w3.org/2000/svg">
<path d="M61.4875 56.6115L57.0801 53.517C56.7052 53.2539 56.22 53.2215 55.8138 53.4328C55.4074 53.644 55.155 54.0596 55.155 54.5176V56.7025H46.2643V44.5493H47.3316C51.0571 44.5493 54.0879 41.5184 54.0879 37.793V37.4564C54.0879 36.3476 53.1858 35.4455 52.0771 35.4455H51.2014C49.2545 35.4455 47.4984 36.2744 46.2643 37.5964V29.2162H48.8822C53.3441 29.2162 56.9742 25.5861 56.9742 21.1242C56.9742 20.2548 56.267 19.5475 55.3977 19.5475H51.8701C51.8292 19.5475 51.7885 19.5487 51.7479 19.55L51.7046 19.5514C51.2022 19.5623 50.8041 19.9784 50.8151 20.4806C50.8261 20.9829 51.2409 21.3846 51.7444 21.3701L51.8094 21.3682C51.8296 21.3675 51.8498 21.3666 51.8701 21.3666H55.1504C55.0223 24.7134 52.2598 27.3968 48.8822 27.3968H46.2643V26.9724C46.2643 25.2427 47.0463 23.6359 48.4101 22.5639C48.8051 22.2534 48.8735 21.6816 48.5631 21.2866C48.2527 20.8915 47.6808 20.8233 47.2859 21.1336C46.307 21.9032 45.5567 22.8822 45.0729 23.9816C44.108 22.8053 42.644 22.0532 41.0074 22.0532H39.333C38.2821 22.0532 37.4271 22.9081 37.4271 23.959C37.4271 26.8577 39.7854 29.2161 42.684 29.2161H44.4452V42.2017V43.6394V56.7022H38.4189C37.9164 56.7022 37.5092 57.1095 37.5092 57.6119C37.5092 58.1142 37.9164 58.5215 38.4189 58.5215H55.1551V60.7064C55.1551 61.1644 55.4075 61.5801 55.8139 61.7913C55.9922 61.884 56.1855 61.9298 56.3782 61.9298C56.6247 61.9298 56.8699 61.8548 57.0802 61.7071L61.4877 58.6126C61.8134 58.384 62.0077 58.0098 62.0077 57.612C62.0076 57.2143 61.8132 56.8403 61.4875 56.6115ZM39.2464 23.9593C39.2464 23.9115 39.2852 23.8727 39.333 23.8727H41.0074C42.9029 23.8727 44.4452 25.4148 44.4452 27.3105V27.3971H42.684C40.7885 27.3971 39.2464 25.8549 39.2464 23.9593ZM51.2014 37.2649H52.0771C52.1827 37.2649 52.2687 37.3508 52.2687 37.4565V37.7931C52.2687 40.5154 50.0539 42.7302 47.3316 42.7302H46.2643V42.2021C46.2643 39.4797 48.4791 37.2649 51.2014 37.2649ZM56.9742 59.5588V55.6656L59.7466 57.6122L56.9742 59.5588Z" fill="#F7C35F"/>
<path d="M34.5417 56.7028H31.9741V45.8261H33.3112C36.7234 45.8261 39.4993 43.05 39.4993 39.638V38.5894C39.4993 37.4271 38.5538 36.4817 37.3916 36.4817H36.343C33.8671 36.4817 31.7273 37.9439 30.7388 40.0495C29.9354 39.2148 28.8083 38.6939 27.561 38.6939H26.4137C25.5469 38.6939 24.8416 39.3992 24.8416 40.266V41.4132C24.8416 43.8465 26.8212 45.8262 29.2546 45.8262H30.1548V56.7029H18.8987V53.6183H19.5723C22.3865 53.6183 24.676 51.3287 24.676 48.5145V47.39C24.676 46.3857 23.859 45.5685 22.8545 45.5685H22.1832C20.2653 45.5685 18.592 46.6323 17.72 48.2005C16.9991 47.4844 16.0067 47.0411 14.9127 47.0411H14.0292C13.2438 47.0411 12.6048 47.6802 12.6048 48.4655V49.6323C12.6048 51.8301 14.3928 53.6182 16.5906 53.6182H17.0793V56.7028H5.59552V48.5961H6.52286C7.02533 48.5961 7.43248 48.1888 7.43248 47.6865C7.43248 47.1841 7.02533 46.7768 6.52286 46.7768H5.59552V39.8451H6.52286C7.02533 39.8451 7.43248 39.4379 7.43248 38.9355C7.43248 38.4332 7.02533 38.0259 6.52286 38.0259H5.59552V31.0943H6.52286C7.02533 31.0943 7.43248 30.687 7.43248 30.1847C7.43248 29.6823 7.02533 29.2751 6.52286 29.2751H5.59552V22.3435H6.52286C7.02533 22.3435 7.43248 21.9362 7.43248 21.4339C7.43248 20.9315 7.02533 20.5242 6.52286 20.5242H5.59552V13.5925H6.52286C7.02533 13.5925 7.43248 13.1853 7.43248 12.6829C7.43248 12.1806 7.02533 11.7733 6.52286 11.7733H5.59552V6.92984H7.78056C8.23841 6.92984 8.65405 6.67744 8.8652 6.27115C9.07647 5.86485 9.04433 5.37959 8.78115 5.00458L5.68661 0.597272C5.45799 0.271748 5.08407 0.0773308 4.68626 0.0772095C4.68614 0.0772095 4.68602 0.0772095 4.6859 0.0772095C4.28821 0.0772095 3.91417 0.271505 3.68531 0.597272L0.590771 5.00458C0.327586 5.37935 0.295203 5.8646 0.506479 6.27102C0.717754 6.67744 1.13339 6.92984 1.59136 6.92984H3.77628V56.7028H0.909624C0.407148 56.7028 0 57.1101 0 57.6124C0 58.1148 0.407148 58.522 0.909624 58.522H34.5417C35.0442 58.522 35.4513 58.1148 35.4513 57.6124C35.4513 57.1101 35.0441 56.7028 34.5417 56.7028ZM31.9741 42.6698C31.9741 40.2608 33.934 38.301 36.343 38.301H37.3916C37.5507 38.301 37.68 38.4304 37.68 38.5894V39.638C37.68 42.047 35.7202 44.0069 33.3112 44.0069H31.9741V43.1067V42.6698ZM26.661 41.4132V40.513H27.5611C28.9913 40.513 30.1549 41.6766 30.1549 43.1068V44.007H29.2547C27.8246 44.007 26.661 42.8434 26.661 41.4132ZM18.8988 50.6723C18.8988 48.8612 20.3722 47.3879 22.1833 47.3879L22.8569 47.3902V48.5146C22.8569 50.3257 21.3836 51.7992 19.5724 51.7992H18.8988V51.0272V50.6723ZM14.4243 49.6325V48.8605H14.913C16.1077 48.8605 17.0796 49.8325 17.0796 51.0271V51.7991H16.5908C15.3962 51.7991 14.4243 50.8271 14.4243 49.6325ZM4.6859 2.33805L6.63262 5.11059H2.73918L4.6859 2.33805Z" fill="#F7C35F"/>
<path d="M44.8258 5.57543L41.0582 5.11697C40.5598 5.05633 40.1058 5.41133 40.0452 5.91017C39.9846 6.40888 40.3397 6.86236 40.8383 6.923L42.4365 7.11742L26.0896 20.0089L25.3767 18.4843C25.2579 18.2301 25.0283 18.0449 24.7547 17.9827C24.4813 17.9207 24.194 17.9878 23.9767 18.1656L9.98357 29.6132C9.59473 29.9313 9.53737 30.5043 9.85549 30.8932C10.0354 31.1129 10.2967 31.2268 10.56 31.2268C10.7627 31.2268 10.9666 31.1595 11.1355 31.0213L24.2239 20.3138L24.9277 21.819C25.0454 22.0707 25.2716 22.2547 25.5418 22.3188C25.8119 22.3829 26.0967 22.32 26.315 22.1479L43.8066 8.35427V10.4867C43.8066 10.989 44.2137 11.3963 44.7162 11.3963C45.2187 11.3963 45.6258 10.989 45.6258 10.4867V6.4785C45.6258 5.97142 45.2212 5.6237 44.8258 5.57543Z" fill="#F7C35F"/>
</svg>
