<svg width="56" height="56" viewBox="0 0 56 56" fill="none" xmlns="http://www.w3.org/2000/svg">
<g clip-path="url(#clip0_326_13261)">
<path d="M55.5583 30.2648L50.9694 25.6759C50.7873 25.4938 50.587 25.4028 50.3685 25.4028C50.15 25.4028 49.9679 25.4938 49.8222 25.6759C49.6401 25.8216 49.5491 26.0128 49.5491 26.2495C49.5491 26.4863 49.6401 26.6775 49.8222 26.8231L54.1926 31.1935L52.4444 32.9417L42.775 23.2722C42.9571 23.163 43.121 23.0355 43.2667 22.8898C43.4123 22.7441 43.558 22.5985 43.7037 22.4528C43.8494 22.3071 43.9951 22.1614 44.1407 22.0157C44.2864 21.8701 44.4139 21.7062 44.5232 21.5241L47.0907 24.0917C47.2364 24.2738 47.4276 24.3648 47.6644 24.3648C47.9011 24.3648 48.0923 24.2738 48.238 24.0917C48.3836 23.946 48.4565 23.7548 48.4565 23.5181C48.4565 23.2813 48.3836 23.0901 48.238 22.9444L45.5065 20.213C46.854 17.9185 47.3821 15.4147 47.0907 12.7014C46.7994 9.98812 45.6704 7.64815 43.7037 5.68148C42.5747 4.58889 41.2909 3.74213 39.8523 3.1412C38.4137 2.54028 36.9114 2.23981 35.3454 2.23981C33.7429 2.23981 32.2224 2.54028 30.7838 3.1412C29.3452 3.74213 28.0614 4.58889 26.9324 5.68148C25.767 6.84691 24.9111 8.15802 24.3648 9.61481C23.7821 11.0716 23.4907 12.5557 23.4907 14.0671C23.4907 15.5785 23.7821 17.0627 24.3648 18.5194C24.9111 19.9762 25.767 21.2873 26.9324 22.4528C28.0978 23.6182 29.409 24.4923 30.8657 25.075C32.3225 25.6577 33.8157 25.9491 35.3454 25.9491C36.4015 25.9491 37.4486 25.8034 38.4866 25.512C39.5245 25.2207 40.4988 24.8019 41.4093 24.2556L51.4611 34.3074C51.6068 34.4531 51.7616 34.5532 51.9255 34.6079C52.0894 34.6625 52.2623 34.6898 52.4444 34.6898C52.6265 34.6898 52.7995 34.6625 52.9634 34.6079C53.1273 34.5532 53.2821 34.4531 53.4278 34.3074L55.5583 32.1769C55.8133 31.9219 55.9407 31.6032 55.9407 31.2208C55.9407 30.8384 55.8133 30.5198 55.5583 30.2648ZM35.3454 24.3102C34.0343 24.3102 32.7505 24.0552 31.494 23.5454C30.2375 23.0355 29.0994 22.2889 28.0796 21.3056C26.113 19.3025 25.1296 16.8897 25.1296 14.0671C25.1296 11.2446 26.113 8.85 28.0796 6.88334C29.063 5.9 30.1738 5.1534 31.412 4.64352C32.6503 4.13364 33.9614 3.8787 35.3454 3.8787C36.6929 3.8787 37.9858 4.13364 39.2241 4.64352C40.4623 5.1534 41.5732 5.9 42.5565 6.88334C44.5232 8.85 45.5065 11.2446 45.5065 14.0671C45.5065 16.8897 44.5232 19.3025 42.5565 21.3056C41.5367 22.2889 40.3986 23.0355 39.1421 23.5454C37.8857 24.0552 36.6201 24.3102 35.3454 24.3102ZM41.4639 7.97593C40.6262 7.13827 39.6793 6.50093 38.6231 6.06389C37.567 5.62685 36.4744 5.40833 35.3454 5.40833C34.1799 5.40833 33.0691 5.62685 32.013 6.06389C30.9568 6.50093 30.0099 7.13827 29.1722 7.97593C28.371 8.77716 27.7519 9.70586 27.3148 10.762C26.8778 11.8182 26.6593 12.929 26.6593 14.0944C26.6593 15.2599 26.8778 16.3616 27.3148 17.3995C27.7519 18.4375 28.371 19.3753 29.1722 20.213C30.0463 21.0506 31.0114 21.6789 32.0676 22.0977C33.1238 22.5165 34.2164 22.7259 35.3454 22.7259C36.438 22.7259 37.5215 22.5165 38.5958 22.0977C39.6702 21.6789 40.6262 21.0506 41.4639 20.213C42.2651 19.3753 42.8843 18.4375 43.3213 17.3995C43.7583 16.3616 43.9769 15.2599 43.9769 14.0944C43.9769 12.929 43.7583 11.8182 43.3213 10.762C42.8843 9.70586 42.2651 8.77716 41.4639 7.97593ZM40.262 19.0657C39.6065 19.7577 38.8417 20.2676 37.9676 20.5954C37.0935 20.9231 36.2194 21.087 35.3454 21.087C34.4349 21.087 33.5426 20.914 32.6685 20.5681C31.7944 20.2221 31.0296 19.7213 30.3741 19.0657C29.6821 18.3738 29.1631 17.609 28.8171 16.7713C28.4711 15.9336 28.2981 15.0414 28.2981 14.0944C28.2981 13.1475 28.4711 12.2461 28.8171 11.3903C29.1631 10.5344 29.6821 9.77871 30.3741 9.12315C31.0296 8.46759 31.7853 7.95772 32.6412 7.59352C33.4971 7.22932 34.3985 7.04722 35.3454 7.04722C36.2559 7.04722 37.139 7.22932 37.9949 7.59352C38.8508 7.95772 39.6065 8.46759 40.262 9.12315C40.954 9.77871 41.473 10.5344 41.819 11.3903C42.165 12.2461 42.338 13.1475 42.338 14.0944C42.338 15.0414 42.165 15.9336 41.819 16.7713C41.473 17.609 40.954 18.3738 40.262 19.0657ZM44.9056 37.6398C44.7599 37.8219 44.7052 38.0222 44.7417 38.2407C44.7781 38.4593 44.8873 38.6414 45.0694 38.787C45.2515 38.8963 45.4519 38.9418 45.6704 38.9236C45.8889 38.9054 46.071 38.8052 46.2167 38.6231C46.2531 38.5867 46.2804 38.5503 46.2986 38.5139C46.3168 38.4775 46.3441 38.4411 46.3806 38.4046C47.2182 37.2028 47.5187 36.0009 47.2819 34.7991C47.0452 33.5972 46.5444 32.6139 45.7796 31.8491C45.0148 31.0478 44.0315 30.5289 42.8296 30.2921C41.6278 30.0554 40.4077 30.3741 39.1694 31.2481C38.9873 31.3938 38.7961 31.5486 38.5958 31.7125C38.3955 31.8764 38.2043 32.0494 38.0222 32.2315C36.8932 33.3241 36.1284 34.6352 35.7278 36.1648C35.3272 37.6944 35.309 39.2241 35.6731 40.7537L33.488 42.9389L31.3574 40.7537C31.7216 39.2241 31.7034 37.6944 31.3028 36.1648C30.9022 34.6352 30.1373 33.3241 29.0083 32.2315C28.8262 32.0494 28.635 31.8764 28.4347 31.7125C28.2344 31.5486 28.0432 31.3938 27.8611 31.2481C27.4605 30.9568 27.069 30.7383 26.6866 30.5926C26.3042 30.4469 25.9127 30.3559 25.512 30.3194C24.638 29.2269 23.6364 28.289 22.5074 27.506C21.3784 26.723 20.1583 26.1312 18.8472 25.7306V22.6713C18.8472 22.4528 18.7653 22.2616 18.6014 22.0977C18.4375 21.9338 18.2463 21.8519 18.0278 21.8519C17.8093 21.8519 17.6181 21.9338 17.4542 22.0977C17.2903 22.2616 17.2083 22.4528 17.2083 22.6713V25.8944C17.2083 26.2222 17.2994 26.5045 17.4815 26.7412C17.6636 26.9779 17.9003 27.1327 18.1917 27.2056C19.175 27.5333 20.1219 27.9704 21.0324 28.5167C21.9429 29.063 22.7623 29.7185 23.4907 30.4833C23.0537 30.629 22.644 30.8111 22.2616 31.0296C21.8792 31.2481 21.5423 31.5213 21.2509 31.8491C21.1052 31.9583 20.9778 32.0858 20.8685 32.2315C20.7593 32.3772 20.65 32.541 20.5407 32.7231H6.17315C5.91821 32.7231 5.69059 32.7778 5.49028 32.887C5.28997 32.9963 5.11698 33.1602 4.9713 33.3787C4.425 34.2528 3.99707 35.1997 3.6875 36.2194C3.37793 37.2392 3.22315 38.2772 3.22315 39.3333C3.22315 40.863 3.51451 42.3198 4.09722 43.7037C4.67994 45.0512 5.48117 46.2258 6.50093 47.2273C7.52068 48.2289 8.70432 49.021 10.0519 49.6037C11.3994 50.1864 12.838 50.4778 14.3676 50.4778C17.0262 50.4778 19.3662 49.6492 21.3875 47.9921C23.4088 46.335 24.6926 44.25 25.2389 41.737C25.4938 41.8463 25.7488 41.9282 26.0037 41.9829C26.2586 42.0375 26.5136 42.083 26.7685 42.1194C26.5136 43.2849 26.0948 44.4048 25.512 45.4792C24.9293 46.5536 24.1827 47.5278 23.2722 48.4019C22.0704 49.6037 20.6773 50.5233 19.0931 51.1606C17.5088 51.798 15.8608 52.0985 14.1491 52.062C12.5102 52.062 10.9259 51.7343 9.3963 51.0787C7.86667 50.4231 6.51914 49.4944 5.3537 48.2926C4.18827 47.1272 3.27778 45.7796 2.62222 44.25C1.96667 42.7204 1.63889 41.1361 1.63889 39.4972C1.63889 38.0769 1.8483 36.7202 2.26713 35.4273C2.68596 34.1344 3.29599 32.9235 4.09722 31.7944C4.89846 30.7019 5.85448 29.764 6.96528 28.981C8.07608 28.198 9.26883 27.6062 10.5435 27.2056C10.8349 27.1327 11.0716 26.9779 11.2537 26.7412C11.4358 26.5045 11.5269 26.2222 11.5269 25.8944V16.6074H17.2083V18.7926C17.2083 19.0111 17.2903 19.2023 17.4542 19.3662C17.6181 19.5301 17.8093 19.612 18.0278 19.612C18.2463 19.612 18.4375 19.5301 18.6014 19.3662C18.7653 19.2023 18.8472 19.0111 18.8472 18.7926V16.6074H19.5574C20.1037 16.6074 20.559 16.4253 20.9231 16.0611C21.2873 15.6969 21.4694 15.2417 21.4694 14.6954V12.4556C21.4694 11.9457 21.2873 11.4995 20.9231 11.1171C20.559 10.7347 20.1037 10.5435 19.5574 10.5435H9.12315C8.61327 10.5435 8.16713 10.7347 7.78472 11.1171C7.40232 11.4995 7.21111 11.9457 7.21111 12.4556V14.6954C7.21111 15.2417 7.40232 15.6969 7.78472 16.0611C8.16713 16.4253 8.61327 16.6074 9.12315 16.6074H9.88796V25.7306C8.46759 26.1676 7.15648 26.8323 5.95463 27.7245C4.75278 28.6168 3.6966 29.6457 2.78611 30.8111C1.87562 32.0858 1.18364 33.4606 0.710185 34.9356C0.236728 36.4107 0 37.9312 0 39.4972C0.0364198 41.3546 0.409722 43.1483 1.11991 44.8782C1.83009 46.6082 2.85895 48.1469 4.20648 49.4944C5.51759 50.8056 7.02901 51.8253 8.74074 52.5537C10.4525 53.2821 12.2552 53.6645 14.1491 53.7009C14.1855 53.7009 14.2219 53.7009 14.2583 53.7009C14.2948 53.7009 14.3312 53.7009 14.3676 53.7009C15.4602 53.7009 16.5255 53.5826 17.5634 53.3458C18.6014 53.1091 19.5938 52.7722 20.5407 52.3352H45.5611C45.7796 52.3352 45.9708 52.2532 46.1347 52.0894C46.2986 51.9255 46.3806 51.7343 46.3806 51.5157C46.3806 51.2972 46.2986 51.106 46.1347 50.9421C45.9708 50.7782 45.7796 50.6963 45.5611 50.6963H34.3074V44.4139L36.8204 41.9009C37.1846 42.0102 37.5488 42.083 37.913 42.1194C38.2772 42.1559 38.6414 42.1741 39.0056 42.1741C39.6975 42.1741 40.3713 42.1012 41.0269 41.9556C41.6824 41.8099 42.3198 41.5914 42.9389 41.3C43.1574 41.1907 43.3031 41.0269 43.3759 40.8083C43.4488 40.5898 43.4306 40.3895 43.3213 40.2074C43.2485 39.9889 43.1028 39.8432 42.8843 39.7704C42.6657 39.6975 42.4472 39.7157 42.2287 39.825C41.6096 40.1164 40.9631 40.3258 40.2894 40.4532C39.6156 40.5807 38.9327 40.608 38.2407 40.5352L42.1741 36.6019C42.3198 36.4562 42.3926 36.265 42.3926 36.0282C42.3926 35.7915 42.3198 35.6003 42.1741 35.4546C41.992 35.2725 41.7917 35.1815 41.5732 35.1815C41.3546 35.1815 41.1543 35.2725 40.9722 35.4546L37.0935 39.3333C36.9843 38.2407 37.1117 37.1755 37.4759 36.1375C37.8401 35.0995 38.4228 34.1799 39.2241 33.3787C39.3698 33.233 39.5154 33.0965 39.6611 32.969C39.8068 32.8415 39.9707 32.7049 40.1528 32.5593C41.0269 31.9401 41.8645 31.7307 42.6657 31.931C43.467 32.1313 44.1225 32.4864 44.6324 32.9963C45.1059 33.4698 45.4427 34.1162 45.6431 34.9356C45.8434 35.7551 45.634 36.6019 45.0148 37.4759C45.0148 37.4759 45.0057 37.4941 44.9875 37.5306C44.9693 37.567 44.942 37.6034 44.9056 37.6398ZM9.12315 14.9685C9.05031 14.9685 8.98657 14.9412 8.93194 14.8866C8.87732 14.8319 8.85 14.7682 8.85 14.6954V12.4556C8.85 12.3827 8.87732 12.319 8.93194 12.2644C8.98657 12.2097 9.05031 12.1824 9.12315 12.1824H19.5574C19.6302 12.1824 19.694 12.2097 19.7486 12.2644C19.8032 12.319 19.8306 12.3827 19.8306 12.4556V14.6954C19.8306 14.7682 19.8032 14.8319 19.7486 14.8866C19.694 14.9412 19.6302 14.9685 19.5574 14.9685H9.12315ZM6.28241 34.362H19.8306C19.7577 34.617 19.7122 34.881 19.694 35.1542C19.6758 35.4273 19.6849 35.7096 19.7213 36.0009H5.51759C5.59043 35.7096 5.69969 35.4273 5.84537 35.1542C5.99105 34.881 6.13673 34.617 6.28241 34.362ZM14.3676 48.8389C11.7454 48.8389 9.50556 47.9102 7.64815 46.0528C5.79074 44.1954 4.86204 41.9556 4.86204 39.3333C4.86204 39.042 4.88025 38.7506 4.91667 38.4593C4.95309 38.1679 4.98951 37.8948 5.02593 37.6398H20.213C20.2858 37.7491 20.3586 37.8674 20.4315 37.9949C20.5043 38.1224 20.5772 38.259 20.65 38.4046C20.7957 38.6231 20.9505 38.8235 21.1144 39.0056C21.2782 39.1877 21.4512 39.3698 21.6333 39.5519C21.9611 39.8432 22.298 40.1255 22.644 40.3986C22.99 40.6718 23.3451 40.8994 23.7093 41.0815C23.3086 43.3031 22.2343 45.1514 20.4861 46.6264C18.738 48.1014 16.6985 48.8389 14.3676 48.8389ZM22.7806 38.4046C22.6349 38.259 22.4983 38.1042 22.3708 37.9403C22.2434 37.7764 22.125 37.6216 22.0157 37.4759C21.3966 36.6019 21.1872 35.7551 21.3875 34.9356C21.5878 34.1162 21.9247 33.4698 22.3981 32.9963C22.6895 32.7049 23.0537 32.45 23.4907 32.2315C23.9278 32.013 24.4012 31.9037 24.9111 31.9037C25.2389 31.9037 25.5667 31.9583 25.8944 32.0676C26.2222 32.1769 26.55 32.3407 26.8778 32.5593C27.0599 32.7049 27.2238 32.8415 27.3694 32.969C27.5151 33.0965 27.6608 33.233 27.8065 33.3787C28.6077 34.1799 29.1904 35.0995 29.5546 36.1375C29.9188 37.1755 30.0463 38.2407 29.937 39.3333L26.0583 35.4546C25.8762 35.2725 25.6759 35.1815 25.4574 35.1815C25.2389 35.1815 25.0386 35.2725 24.8565 35.4546C24.7108 35.6003 24.638 35.7915 24.638 36.0282C24.638 36.265 24.7108 36.4562 24.8565 36.6019L28.7898 40.5352C27.6972 40.6444 26.6228 40.517 25.5667 40.1528C24.5105 39.7886 23.5818 39.2059 22.7806 38.4046ZM32.6685 50.6963H23.163C23.3815 50.5142 23.6 50.3321 23.8185 50.15C24.037 49.9679 24.2373 49.7858 24.4194 49.6037C25.4756 48.584 26.3406 47.4367 27.0144 46.162C27.6881 44.8873 28.1707 43.558 28.462 42.1741C28.7534 42.1741 29.0448 42.1468 29.3361 42.0921C29.6275 42.0375 29.9188 41.9738 30.2102 41.9009L32.6685 44.4139V50.6963ZM12.4009 41.737C12.4009 41.9556 12.319 42.1468 12.1551 42.3106C11.9912 42.4745 11.8 42.5565 11.5815 42.5565C11.363 42.5565 11.1718 42.4745 11.0079 42.3106C10.844 42.1468 10.762 41.9556 10.762 41.737C10.762 41.5185 10.844 41.3273 11.0079 41.1634C11.1718 40.9995 11.363 40.9176 11.5815 40.9176C11.8 40.9176 11.9912 40.9995 12.1551 41.1634C12.319 41.3273 12.4009 41.5185 12.4009 41.737ZM16.225 45.3426C16.225 45.5611 16.1431 45.7523 15.9792 45.9162C15.8153 46.0801 15.6241 46.162 15.4056 46.162C15.187 46.162 14.9958 46.0801 14.8319 45.9162C14.6681 45.7523 14.5861 45.5611 14.5861 45.3426C14.5861 45.1241 14.6681 44.9329 14.8319 44.769C14.9958 44.6051 15.187 44.5231 15.4056 44.5231C15.6241 44.5231 15.8153 44.6051 15.9792 44.769C16.1431 44.9329 16.225 45.1241 16.225 45.3426ZM17.7546 40.0981C17.7546 40.3167 17.6727 40.5079 17.5088 40.6718C17.3449 40.8356 17.1537 40.9176 16.9352 40.9176C16.7167 40.9176 16.5255 40.8356 16.3616 40.6718C16.1977 40.5079 16.1157 40.3167 16.1157 40.0981C16.1157 39.8796 16.1977 39.6884 16.3616 39.5245C16.5255 39.3606 16.7167 39.2787 16.9352 39.2787C17.1537 39.2787 17.3449 39.3606 17.5088 39.5245C17.6727 39.6884 17.7546 39.8796 17.7546 40.0981Z" fill="#EEC044"/>
</g>
<defs>
<clipPath id="clip0_326_13261">
<rect width="55.9407" height="55.9407" fill="white" transform="matrix(1 0 0 -1 0 55.9407)"/>
</clipPath>
</defs>
</svg>
