<svg width="55" height="55" viewBox="0 0 55 55" fill="none" xmlns="http://www.w3.org/2000/svg">
<g clip-path="url(#clip0_349_14790)">
<path d="M33.4294 32.1238L35.3773 30.8977C35.4412 30.8578 35.4967 30.8058 35.5405 30.7444C35.5844 30.6831 35.6157 30.6138 35.6327 30.5404C35.6497 30.4669 35.6521 30.3909 35.6397 30.3166C35.6274 30.2422 35.6005 30.171 35.5606 30.1071C35.5207 30.0431 35.4687 29.9877 35.4073 29.9438C35.346 29.9 35.2767 29.8687 35.2033 29.8517C35.1299 29.8346 35.0538 29.8323 34.9795 29.8446C34.9051 29.857 34.8339 29.8839 34.77 29.9237L33.2288 30.9378L33.5554 29.9352C33.6017 29.7901 33.5886 29.6325 33.5187 29.4971C33.4841 29.4301 33.4367 29.3705 33.3791 29.3219C33.3215 29.2732 33.2549 29.2363 33.183 29.2133C33.0379 29.167 32.8803 29.1802 32.7449 29.25C32.6096 29.3199 32.5075 29.4406 32.4611 29.5857L32.1403 30.5826L31.4528 28.8639C31.3966 28.7225 31.2865 28.6094 31.1469 28.5492C31.0072 28.489 30.8493 28.4868 30.708 28.543C30.5667 28.5992 30.4535 28.7093 30.3933 28.849C30.3332 28.9886 30.331 29.1465 30.3872 29.2878L31.2408 31.4248C28.819 30.9488 26.3067 31.3755 24.1779 32.6245C22.0491 33.8734 20.4509 35.8582 19.6848 38.2044C18.9187 40.5506 19.0376 43.0961 20.0192 45.3607C21.0008 47.6252 22.7772 49.4523 25.0132 50.4972L23.0653 51.729C22.9354 51.8103 22.8431 51.9398 22.8087 52.0892C22.7743 52.2385 22.8007 52.3954 22.882 52.5253C22.9633 52.6552 23.0928 52.7475 23.2422 52.7819C23.3915 52.8163 23.5484 52.7899 23.6783 52.7087L25.2424 51.7232L24.9158 52.7087C24.8688 52.853 24.881 53.0101 24.9498 53.1455C25.0185 53.2808 25.1382 53.3833 25.2825 53.4305C25.3414 53.4383 25.4011 53.4383 25.4601 53.4305C25.5865 53.4363 25.7112 53.4001 25.8148 53.3276C25.9185 53.255 25.9952 53.1502 26.033 53.0295L26.3538 52.067L27.0413 53.7857C27.0838 53.8923 27.1573 53.9837 27.2523 54.0481C27.3473 54.1124 27.4594 54.1468 27.5742 54.1467C27.6467 54.1469 27.7187 54.1332 27.7861 54.1066C27.8561 54.0788 27.92 54.0375 27.974 53.985C28.028 53.9325 28.0712 53.8699 28.101 53.8007C28.1308 53.7315 28.1467 53.6572 28.1477 53.5818C28.1487 53.5065 28.1349 53.4317 28.107 53.3618L27.2476 51.2191C27.9033 51.3572 28.5713 51.4282 29.2413 51.431C31.5473 51.4291 33.7834 50.6391 35.5787 49.1919C37.3741 47.7448 38.6209 45.7275 39.1124 43.4745C39.604 41.2215 39.3107 38.8681 38.2812 36.8047C37.2517 34.7413 35.5479 33.0917 33.4523 32.1295L33.4294 32.1238ZM26.4684 49.8441C25.9757 49.5003 25.9643 46.1087 27.683 40.8149C29.4018 35.5211 31.4012 32.7941 31.9856 32.7941C32.4726 33.1378 32.4841 36.5295 30.7653 41.8232C29.0466 47.117 27.0471 49.8441 26.4684 49.8441ZM30.3643 32.6566C29.9772 33.1148 29.6303 33.6055 29.3273 34.1232C28.1875 36.1194 27.2655 38.2322 26.5773 40.4253C25.7695 42.9118 24.8585 46.6701 25.0533 48.9618C24.321 48.1979 23.8101 47.2493 23.5752 46.2175C23.0719 44.0113 23.2009 41.7078 23.9476 39.5717C24.5984 37.4041 25.8475 35.464 27.5512 33.9743C28.3519 33.2878 29.3244 32.8323 30.3643 32.6566ZM28.0726 49.9644C28.4571 49.5054 28.8021 49.0148 29.1038 48.4977C30.243 46.4913 31.1649 44.369 31.8538 42.167C32.6559 39.6863 33.5726 35.9222 33.3721 33.6305C34.1081 34.3925 34.6213 35.3416 34.8559 36.3748C35.3593 38.581 35.2302 40.8845 34.4835 43.0206C33.2288 46.8764 30.5934 49.6206 28.0726 49.9644ZM20.6992 38.5404C21.2062 36.9812 22.1314 35.591 23.374 34.5212C24.6165 33.4514 26.1287 32.743 27.746 32.4732C27.4273 32.667 27.1229 32.8834 26.8351 33.1206C24.9637 34.7496 23.588 36.8718 22.8648 39.2451C22.0545 41.5898 21.9195 44.1149 22.4752 46.5326C22.5694 46.8917 22.6881 47.2439 22.8304 47.5868C21.6825 46.4176 20.8769 44.9562 20.5012 43.3613C20.1254 41.7664 20.1939 40.0991 20.6992 38.5404ZM37.7492 44.0805C37.241 45.6442 36.3118 47.0377 35.0636 48.108C33.8155 49.1783 32.2966 49.884 30.6736 50.1477C32.7361 48.8701 34.5809 46.4467 35.5778 43.3758C36.392 41.0341 36.529 38.5102 35.9731 36.0941C35.8763 35.7376 35.7577 35.3875 35.6179 35.0456C36.7638 36.2138 37.5681 37.6732 37.9438 39.2658C38.3195 40.8584 38.2522 42.5234 37.7492 44.0805ZM52.0377 23.53C52.0155 23.4907 51.9864 23.4558 51.9518 23.4269C51.8601 23.318 51.7742 23.1977 51.6768 23.0946L50.8632 22.2123C50.6031 21.9291 50.2894 21.7002 49.9403 21.539C49.5912 21.3777 49.2136 21.2872 48.8294 21.2727L49.2189 20.4993C49.4034 20.1281 49.4693 19.7092 49.4078 19.2993C49.3464 18.8894 49.1604 18.5083 48.8752 18.2076C48.771 18.1043 48.6988 17.9732 48.6672 17.8299C48.6357 17.6866 48.6463 17.5372 48.6976 17.3998L49.3507 15.767C49.4849 15.434 49.527 15.0711 49.4726 14.7162C49.4182 14.3614 49.2692 14.0277 49.0413 13.7503L48.4684 13.0743C48.3185 12.8925 48.2139 12.6778 48.1631 12.4477C48.1123 12.2176 48.1168 11.9788 48.1762 11.7508L48.4054 10.8857C48.5462 10.3711 48.4926 9.82266 48.2549 9.34503C48.0171 8.8674 47.6118 8.49402 47.1163 8.29614C46.8384 8.18502 46.5915 8.00811 46.3969 7.7806C46.2023 7.55308 46.0658 7.28175 45.9992 6.98989L45.7872 6.03312C45.7291 5.77865 45.6109 5.5418 45.4424 5.34243C45.274 5.14306 45.0602 4.98699 44.8189 4.88729C44.5109 4.75838 44.17 4.73031 43.845 4.80708L43.9939 4.1826C44.0933 3.73129 44.0477 3.26012 43.8636 2.83626C43.6794 2.41241 43.3661 2.05752 42.9684 1.82218L42.6247 1.62739C42.3865 1.491 42.1219 1.40697 41.8486 1.38092C41.5754 1.35487 41.2997 1.38738 41.04 1.4763C40.7803 1.56522 40.5425 1.70849 40.3425 1.89657C40.1426 2.08464 39.985 2.3132 39.8804 2.56698L39.5309 3.28885C39.4845 3.40395 39.4056 3.5031 39.3039 3.57428C39.2022 3.64546 39.0821 3.68562 38.958 3.68989C38.7529 3.69123 38.5503 3.73542 38.3633 3.8196C38.1763 3.90379 38.0089 4.02613 37.8719 4.17878C37.7349 4.33142 37.6313 4.51101 37.5677 4.70603C37.5042 4.90104 37.482 5.10719 37.5028 5.31125L37.6632 6.92687C37.7131 7.42611 37.5673 7.92522 37.2564 8.31906L36.7294 8.98364C36.3685 9.44406 36.1781 10.0152 36.1907 10.6001C36.2032 11.185 36.4178 11.7474 36.7981 12.192L37.371 12.8623C37.551 13.0631 37.6839 13.3016 37.7602 13.5602C37.8365 13.8188 37.8543 14.0912 37.8122 14.3576L37.6976 14.9935C37.6254 15.4217 37.6715 15.8615 37.8311 16.2654C37.9906 16.6693 38.2575 17.0219 38.6028 17.2852L39.4163 17.8982C39.5406 17.9939 39.6376 18.1203 39.6979 18.265C39.7582 18.4097 39.7797 18.5677 39.7601 18.7232C39.6898 19.2585 39.8042 19.8018 40.0844 20.2632C40.3646 20.7247 40.7939 21.0768 41.3012 21.2612C41.5425 21.3542 41.7602 21.4995 41.9385 21.6868C42.1169 21.874 42.2514 22.0985 42.3325 22.3441L42.4986 22.7852C42.1321 22.9941 41.8153 23.28 41.5699 23.6232C41.3246 23.9664 41.1567 24.3588 41.0778 24.7732L40.7856 26.3144C40.5481 27.5722 40.5726 28.8655 40.8575 30.1135C41.1424 31.3615 41.6815 32.5373 42.4413 33.5675L51.207 45.4326C51.2597 45.5048 51.3287 45.5637 51.4083 45.6045C51.4878 45.6452 51.5759 45.6668 51.6653 45.6675C51.7129 45.6731 51.761 45.6731 51.8085 45.6675C51.92 45.6384 52.02 45.5763 52.0956 45.4894C52.1713 45.4026 52.219 45.2949 52.2325 45.1805L54.0658 30.5597C54.2224 29.3117 54.1233 28.0448 53.7746 26.8363C53.426 25.6278 52.835 24.5028 52.0377 23.53ZM41.6851 20.2185C41.4242 20.1207 41.2035 19.9384 41.0582 19.7006C40.9129 19.4629 40.8512 19.1834 40.883 18.9066C40.9299 18.5508 40.8826 18.189 40.7458 17.8572C40.6091 17.5255 40.3877 17.2354 40.1038 17.0159L39.2903 16.4029C39.1088 16.2637 38.969 16.0774 38.8862 15.8642C38.8034 15.6511 38.7806 15.4193 38.8205 15.1941L38.9351 14.5581C39.0115 14.1262 38.991 13.6826 38.8751 13.2596C38.7591 12.8365 38.5507 12.4445 38.2648 12.1118L37.6919 11.4415C37.4909 11.2022 37.3774 10.9015 37.3701 10.5891C37.3628 10.2767 37.4621 9.97111 37.6518 9.72271L38.1788 9.05812C38.6761 8.43204 38.9084 7.6362 38.8262 6.84094L38.6658 5.22531C38.6577 5.18033 38.6589 5.13416 38.6694 5.08969C38.68 5.04521 38.6996 5.00338 38.727 4.96682C38.7544 4.93025 38.7891 4.89974 38.8288 4.87718C38.8686 4.85463 38.9126 4.84051 38.958 4.83573C39.3083 4.83041 39.6494 4.72295 39.9394 4.52652C40.2295 4.3301 40.4559 4.05327 40.5908 3.73L40.8887 3.00812C40.9319 2.90428 40.9967 2.81077 41.0786 2.73374C41.1606 2.65672 41.2579 2.59793 41.3643 2.56125C41.4703 2.52449 41.5831 2.51109 41.6949 2.52197C41.8066 2.53285 41.9147 2.56774 42.0117 2.62427L42.3554 2.81906C42.5518 2.92989 42.7066 3.10171 42.7966 3.30847C42.8865 3.51523 42.9066 3.74568 42.8538 3.96489L42.5903 5.08208V5.13364L42.0976 8.76594C42.0763 8.91636 42.1157 9.06907 42.207 9.19047C42.2984 9.31187 42.4342 9.39204 42.5846 9.41333H42.6648C42.8047 9.41452 42.9401 9.36449 43.0457 9.27267C43.1512 9.18085 43.2195 9.0536 43.2377 8.91489L43.6158 6.13625C43.7311 6.1197 43.842 6.08077 43.9424 6.02166C44.0057 5.97352 44.0802 5.94224 44.1589 5.93076C44.2377 5.91928 44.318 5.92797 44.3924 5.95603C44.4669 5.98409 44.533 6.03059 44.5845 6.09117C44.6361 6.15175 44.6714 6.22443 44.6872 6.30239L44.9049 7.25916C45.0118 7.73295 45.2326 8.17356 45.548 8.5429C45.8634 8.91224 46.2641 9.1992 46.7153 9.37896C46.9489 9.47377 47.1397 9.65086 47.2515 9.87676C47.3634 10.1027 47.3887 10.3617 47.3226 10.605L47.0992 11.4185C46.9895 11.8258 46.9796 12.2535 47.0704 12.6654C47.1611 13.0773 47.3498 13.4612 47.6205 13.7847L48.1934 14.455C48.2954 14.5751 48.3626 14.7207 48.3878 14.8762C48.4131 15.0317 48.3954 15.1911 48.3367 15.3373L47.6835 16.9701C47.5496 17.3094 47.5151 17.6798 47.5841 18.038C47.6531 18.3962 47.8227 18.7273 48.0731 18.9925C48.1973 19.1209 48.2783 19.2848 48.305 19.4614C48.3317 19.638 48.3027 19.8186 48.2221 19.9779L47.4715 21.4847L46.5663 21.7024L47.1393 19.6284C47.1803 19.4818 47.1614 19.3249 47.0867 19.1922C47.012 19.0595 46.8877 18.9619 46.7411 18.9209C46.5945 18.8799 46.4375 18.8988 46.3048 18.9734C46.1721 19.0481 46.0746 19.1724 46.0335 19.3191L45.5867 20.8946L45.5523 20.8258C44.5701 18.8421 43.9732 16.6899 43.7934 14.4836C43.7805 14.3317 43.7078 14.1911 43.5912 14.0928C43.4746 13.9945 43.3238 13.9465 43.1718 13.9594C43.0199 13.9723 42.8793 14.0451 42.781 14.1617C42.6827 14.2782 42.6347 14.4291 42.6476 14.581C42.6992 15.154 42.7736 15.7269 42.8768 16.2998L41.9544 15.7269C41.8267 15.6441 41.6714 15.6153 41.5226 15.647C41.3738 15.6787 41.2437 15.7682 41.1609 15.8959C41.0781 16.0235 41.0493 16.1788 41.081 16.3276C41.1127 16.4764 41.2022 16.6066 41.3299 16.6894L43.232 17.9211C43.5505 19.1057 43.9821 20.2568 44.521 21.3586L44.8934 22.1092L43.5872 22.4185L43.4153 21.9545C43.2708 21.5565 43.0411 21.1949 42.7423 20.8951C42.4434 20.5952 42.0826 20.3643 41.6851 20.2185ZM51.2757 43.5993L43.3637 32.88C42.6974 31.9769 42.2247 30.9459 41.9753 29.8516C41.7259 28.7573 41.7051 27.6233 41.9143 26.5206L42.2064 24.9795C42.2702 24.6437 42.4304 24.3337 42.6674 24.0875C42.9045 23.8412 43.2082 23.6694 43.5413 23.593L47.4715 22.6649L48.3309 22.4644C48.4621 22.4322 48.5969 22.4168 48.732 22.4185C48.9766 22.419 49.2184 22.4702 49.4422 22.5688C49.6661 22.6674 49.8671 22.8113 50.0325 22.9915L50.5137 23.5185L47.2481 24.3722C47.0962 24.3912 46.958 24.4698 46.864 24.5906C46.77 24.7115 46.7278 24.8648 46.7468 25.0167C46.7658 25.1687 46.8444 25.3068 46.9653 25.4009C47.0861 25.4949 47.2394 25.537 47.3913 25.518C47.4389 25.5236 47.487 25.5236 47.5346 25.518L51.3502 24.5211C51.6499 24.9163 51.9127 25.3382 52.1351 25.7816L50.4163 26.2399C50.3411 26.2493 50.2685 26.2734 50.2025 26.3109C50.1366 26.3484 50.0788 26.3985 50.0322 26.4583C49.9857 26.5182 49.9513 26.5866 49.9312 26.6597C49.9111 26.7328 49.9056 26.8092 49.915 26.8844C49.9244 26.9597 49.9486 27.0323 49.9861 27.0982C50.0235 27.1641 50.0736 27.222 50.1335 27.2686C50.1933 27.3151 50.2618 27.3494 50.3349 27.3695C50.408 27.3896 50.4843 27.3951 50.5596 27.3857C50.6072 27.3913 50.6552 27.3913 50.7028 27.3857L52.5992 26.8873C52.7459 27.3432 52.8532 27.8109 52.92 28.2852L50.4163 28.8753C50.3433 28.894 50.2747 28.9269 50.2144 28.9722C50.1541 29.0175 50.1033 29.0742 50.065 29.1392C50.0267 29.2041 50.0015 29.276 49.991 29.3506C49.9806 29.4253 49.9849 29.5013 50.0038 29.5743C50.0363 29.7003 50.1108 29.8116 50.2149 29.8897C50.319 29.9678 50.4467 30.0081 50.5768 30.004C50.6243 30.0096 50.6724 30.0096 50.72 30.004L53.0117 29.3967C53.0154 29.7375 52.9963 30.0782 52.9544 30.4165L52.8913 30.9092L50.0268 31.6597C49.9537 31.6784 49.8851 31.7113 49.8248 31.7566C49.7645 31.8019 49.7137 31.8586 49.6754 31.9235C49.6371 31.9885 49.612 32.0603 49.6015 32.135C49.591 32.2097 49.5953 32.2857 49.6143 32.3586C49.6467 32.4847 49.7212 32.5959 49.8253 32.674C49.9294 32.7521 50.0571 32.7924 50.1872 32.7883C50.2348 32.7939 50.2828 32.7939 50.3304 32.7883L52.708 32.118L51.2757 43.5993ZM42.1778 12.1862C42.1778 12.0729 42.2114 11.9622 42.2744 11.868C42.3373 11.7737 42.4268 11.7003 42.5315 11.6569C42.6362 11.6136 42.7514 11.6022 42.8625 11.6243C42.9736 11.6464 43.0757 11.701 43.1558 11.7811C43.236 11.8613 43.2905 11.9633 43.3126 12.0745C43.3347 12.1856 43.3234 12.3008 43.28 12.4055C43.2367 12.5102 43.1632 12.5997 43.069 12.6626C42.9748 12.7256 42.864 12.7592 42.7507 12.7592C42.5988 12.7592 42.453 12.6988 42.3456 12.5914C42.2382 12.4839 42.1778 12.3382 42.1778 12.1862ZM23.9533 24.9623L23.9992 24.8362C25.4665 20.622 25.6085 16.0596 24.4059 11.7623C24.2184 11.0775 23.8415 10.4594 23.3186 9.97903C22.7957 9.49868 22.1479 9.17553 21.4497 9.04667C20.6037 8.89212 19.7304 9.02524 18.9689 9.42479L18.396 9.74562C18.2917 9.80241 18.1769 9.83741 18.0587 9.84848C17.9404 9.85956 17.8211 9.84648 17.7081 9.81004C17.595 9.77361 17.4905 9.71458 17.401 9.63653C17.3115 9.55849 17.2387 9.46306 17.1872 9.35604C16.8942 8.74387 16.465 8.20689 15.9325 7.78625L16.0872 5.86698C16.1106 5.54485 16.208 5.23247 16.372 4.95421C16.536 4.67595 16.762 4.43934 17.0325 4.26281L17.233 4.13104C17.4362 3.99418 17.6096 3.81749 17.7425 3.61167C17.8755 3.40585 17.9653 3.17518 18.0064 2.93364C18.0602 2.5866 18.0101 2.23141 17.8626 1.91271C17.7151 1.59401 17.4767 1.32601 17.1774 1.14237C16.878 0.958724 16.5311 0.867633 16.1802 0.880537C15.8292 0.893441 15.4899 1.00976 15.2049 1.21489L15.033 1.33521C14.2979 1.86131 13.6914 2.54689 13.2588 3.34062C12.8262 4.13434 12.5788 5.01565 12.5351 5.91854L12.4893 6.82948C11.5174 6.95647 10.6118 7.39167 9.90549 8.07119C9.19916 8.75071 8.72926 9.63877 8.56478 10.605V10.6336C8.55642 10.6895 8.53421 10.7423 8.50018 10.7873C8.46616 10.8324 8.4214 10.8682 8.36999 10.8915C8.32054 10.9175 8.26548 10.9312 8.20957 10.9312C8.15366 10.9312 8.0986 10.9175 8.04915 10.8915L7.26426 10.4045C6.74787 10.0903 6.16598 9.89944 5.56382 9.84678C4.96166 9.79412 4.35547 9.88105 3.79238 10.1008C3.48177 10.2213 3.18884 10.3832 2.92155 10.5821C2.83753 10.6128 2.76186 10.6627 2.70061 10.7279C2.63935 10.7931 2.59421 10.8717 2.5688 10.9575C2.5434 11.0433 2.53842 11.1338 2.55429 11.2218C2.57015 11.3098 2.6064 11.3929 2.66015 11.4644C2.7139 11.536 2.78364 11.5939 2.86379 11.6336C2.94395 11.6733 3.03229 11.6937 3.12174 11.6931C3.21119 11.6926 3.29926 11.6711 3.37891 11.6303C3.45856 11.5896 3.52756 11.5308 3.5804 11.4586C3.77098 11.3194 3.97901 11.2058 4.19915 11.1206C4.59493 10.9649 5.02154 10.9035 5.44517 10.9413C5.8688 10.9791 6.27781 11.115 6.63978 11.3383L7.4304 11.8196C7.69573 11.9792 8.0038 12.0532 8.31269 12.0316C8.10918 13.4316 8.01151 14.845 8.02051 16.2597C8.02051 16.4116 8.08087 16.5574 8.18831 16.6648C8.29575 16.7722 8.44148 16.8326 8.59342 16.8326C8.74537 16.8326 8.89109 16.7722 8.99854 16.6648C9.10598 16.5574 9.16634 16.4116 9.16634 16.2597C9.14174 14.4374 9.30492 12.6173 9.65332 10.8284C9.76511 10.104 10.1056 9.43418 10.625 8.91691C11.1444 8.39964 11.8156 8.06197 12.5405 7.95319C13.2655 7.84442 14.0062 7.97025 14.6546 8.3123C15.3029 8.65435 15.825 9.19471 16.1445 9.85448C16.2018 9.96402 16.2669 10.0693 16.3393 10.1696C16.3363 10.1828 16.3363 10.1965 16.3393 10.2097L17.0153 13.5899C17.0409 13.7223 17.1124 13.8414 17.2172 13.9263C17.322 14.0112 17.4534 14.0564 17.5882 14.054H17.7028C17.7771 14.0396 17.8477 14.0106 17.9107 13.9688C17.9737 13.927 18.0279 13.8731 18.0699 13.8102C18.112 13.7474 18.1412 13.6768 18.1559 13.6026C18.1706 13.5284 18.1704 13.452 18.1554 13.3779L17.6742 10.9774C18.0974 11.0368 18.5287 10.9606 18.9059 10.7597L19.4788 10.4389C20.0062 10.1612 20.6113 10.0685 21.1976 10.1753C21.6847 10.2638 22.1369 10.4882 22.5019 10.8228C22.8668 11.1573 23.1297 11.5883 23.2601 12.0659C24.4142 16.1348 24.2942 20.4595 22.9163 24.4581L22.8705 24.5842C22.6289 25.2748 22.1977 25.8835 21.6262 26.3405C21.0548 26.7974 20.3661 27.0842 19.6393 27.168C19.4267 27.1906 19.2172 27.2368 19.0148 27.3055L19.0721 26.6409C19.2587 24.4453 19.203 22.2358 18.9059 20.0524C18.8961 19.9772 18.8716 19.9046 18.8338 19.8388C18.796 19.7731 18.7456 19.7154 18.6855 19.6691C18.6253 19.6228 18.5567 19.5888 18.4834 19.5691C18.4102 19.5493 18.3338 19.5442 18.2585 19.554C18.1833 19.5637 18.1107 19.5882 18.045 19.6261C17.9792 19.6639 17.9215 19.7143 17.8752 19.7744C17.7818 19.8958 17.7403 20.0494 17.7601 20.2014C18.0407 22.3096 18.0868 24.4424 17.8976 26.5607L17.7945 28.0732C17.6856 28.1848 17.5841 28.3035 17.4908 28.4284C17.3503 28.6336 17.1707 28.8091 16.9623 28.9447C16.7539 29.0804 16.5207 29.1736 16.2762 29.2191L15.434 29.3738C14.6934 29.509 13.9294 29.4275 13.234 29.1389L12.8788 28.6232C12.0249 27.3669 11.3084 26.0223 10.7419 24.6128C10.6868 24.4718 10.5782 24.3583 10.4397 24.2971C10.3012 24.2359 10.1441 24.232 10.0028 24.2862C9.93228 24.3135 9.86784 24.3544 9.8132 24.4066C9.75857 24.4589 9.71481 24.5214 9.68445 24.5907C9.6541 24.6599 9.63774 24.7344 9.63633 24.81C9.63492 24.8856 9.64848 24.9607 9.67624 25.031C10.2004 26.3438 10.8508 27.6025 11.6184 28.7894C11.4536 28.7894 11.289 28.8009 11.1257 28.8238L10.3465 28.9326C9.7361 29.0196 9.11352 28.9435 8.54199 28.712C7.97046 28.4806 7.47034 28.1021 7.09238 27.6149C4.69058 24.4936 3.00812 20.8803 2.1653 17.0331C2.05661 16.5229 2.00473 16.0022 2.01061 15.4805C2.01061 15.3286 1.95025 15.1828 1.84281 15.0754C1.73536 14.968 1.58964 14.9076 1.43769 14.9076C1.28575 14.9076 1.14002 14.968 1.03258 15.0754C0.925138 15.1828 0.864778 15.3286 0.864778 15.4805C0.85452 16.091 0.916054 16.7006 1.04811 17.2967C1.93202 21.3101 3.69284 25.0782 6.20436 28.331C6.70573 28.9784 7.36945 29.4815 8.12813 29.7894C8.88682 30.0973 9.71346 30.199 10.5242 30.0842L11.309 29.9753C11.7629 29.9082 12.2265 29.9739 12.6439 30.1644C13.5855 30.5982 14.6387 30.7283 15.6575 30.5368L16.4997 30.3821C17.2803 30.2415 17.9752 29.8015 18.4361 29.156C18.5927 28.9378 18.7935 28.7551 19.0255 28.6199C19.2575 28.4846 19.5155 28.3998 19.7825 28.3711C20.7287 28.2548 21.6225 27.8729 22.3607 27.2696C23.0988 26.6663 23.651 25.8664 23.9533 24.9623ZM15.6919 2.24614L15.8637 2.12583C15.9981 2.03019 16.164 1.98993 16.3272 2.0134C16.4905 2.03686 16.6384 2.12226 16.7403 2.25187C16.7942 2.32194 16.8332 2.40232 16.8549 2.48804C16.8766 2.57377 16.8805 2.66302 16.8663 2.75031C16.85 2.83605 16.8167 2.91768 16.7685 2.99046C16.7203 3.06324 16.6582 3.12572 16.5856 3.17427L16.3908 3.30604C15.9756 3.57892 15.6284 3.94342 15.3762 4.3715C15.1239 4.79959 14.9732 5.27984 14.9356 5.77531L14.821 7.13312C14.4385 6.97275 14.0355 6.86669 13.6236 6.81802L13.6695 5.96437C13.7055 5.23246 13.906 4.51808 14.2561 3.87435C14.6063 3.23061 15.097 2.67409 15.6919 2.24614ZM9.24082 19.193C9.24082 19.3063 9.20722 19.4171 9.14427 19.5113C9.08131 19.6055 8.99184 19.679 8.88715 19.7223C8.78246 19.7657 8.66727 19.777 8.55613 19.7549C8.445 19.7328 8.34291 19.6783 8.26279 19.5981C8.18267 19.518 8.1281 19.4159 8.10599 19.3048C8.08389 19.1937 8.09523 19.0785 8.1386 18.9738C8.18196 18.8691 8.25539 18.7796 8.34961 18.7167C8.44382 18.6537 8.55459 18.6201 8.6679 18.6201C8.81985 18.6201 8.96557 18.6805 9.07302 18.7879C9.18046 18.8953 9.24082 19.0411 9.24082 19.193ZM9.28665 21.9373C9.39996 21.9373 9.51073 21.9709 9.60495 22.0338C9.69916 22.0968 9.7726 22.1863 9.81596 22.291C9.85932 22.3956 9.87067 22.5108 9.84856 22.622C9.82646 22.7331 9.77189 22.8352 9.69177 22.9153C9.61164 22.9954 9.50956 23.05 9.39842 23.0721C9.28729 23.0942 9.17209 23.0829 9.06741 23.0395C8.96272 22.9962 8.87324 22.9227 8.81029 22.8285C8.74734 22.7343 8.71374 22.6235 8.71374 22.5102C8.71374 22.435 8.72856 22.3605 8.75735 22.291C8.78614 22.2215 8.82834 22.1583 8.88154 22.1051C8.93474 22.0519 8.9979 22.0097 9.06741 21.9809C9.13692 21.9521 9.21142 21.9373 9.28665 21.9373ZM17.4163 17.1878C17.4163 17.0745 17.4499 16.9637 17.5129 16.8695C17.5758 16.7753 17.6653 16.7019 17.77 16.6585C17.8747 16.6151 17.9899 16.6038 18.101 16.6259C18.2122 16.648 18.3142 16.7026 18.3944 16.7827C18.4745 16.8628 18.5291 16.9649 18.5512 17.076C18.5733 17.1872 18.5619 17.3024 18.5186 17.4071C18.4752 17.5117 18.4018 17.6012 18.3076 17.6642C18.2133 17.7271 18.1026 17.7607 17.9893 17.7607C17.8373 17.7607 17.6916 17.7004 17.5841 17.5929C17.4767 17.4855 17.4163 17.3398 17.4163 17.1878ZM12.5064 37.2399C12.4733 37.2204 12.4388 37.2032 12.4033 37.1883C12.6733 36.887 12.8258 36.4986 12.833 36.0941C12.8332 35.6461 12.6584 35.2157 12.3459 34.8946C12.0334 34.5736 11.6079 34.3873 11.1601 34.3753H10.5471C9.88528 34.3601 9.23355 34.5393 8.6725 34.8906C8.11144 35.2419 7.66566 35.7499 7.3903 36.3519C6.75538 35.9584 6.00768 35.7871 5.26478 35.8649C4.49236 35.9607 3.77329 36.3092 3.21947 36.856L3.10488 36.9706C2.8883 37.1928 2.73588 37.4694 2.6638 37.7712C2.59172 38.0729 2.60267 38.3886 2.69548 38.6846C2.78828 38.9807 2.95949 39.2461 3.19094 39.4527C3.42239 39.6593 3.70545 39.7994 4.01009 39.8581L3.90697 40.0415C3.52146 40.7907 3.28898 41.6092 3.22308 42.4492C3.15718 43.2892 3.25917 44.134 3.52311 44.9342C3.84728 45.9394 4.41481 46.8491 5.17524 47.5821C5.93568 48.3152 6.86546 48.849 7.88194 49.1362C8.89841 49.4233 9.97009 49.4548 11.0017 49.2279C12.0333 49.0011 12.9928 48.5228 13.7951 47.8357C14.5973 47.1486 15.2173 46.2739 15.6 45.2895C15.9827 44.305 16.1162 43.2412 15.9887 42.1927C15.8612 41.1441 15.4766 40.1434 14.8691 39.2793C14.2616 38.4153 13.45 37.7147 12.5064 37.2399ZM10.5184 35.481H11.1314C11.2814 35.4862 11.4233 35.55 11.5268 35.6586C11.6319 35.7677 11.6896 35.914 11.6872 36.0654C11.6846 36.1411 11.6671 36.2155 11.6356 36.2843C11.6042 36.3531 11.5594 36.415 11.5038 36.4665C11.3948 36.5716 11.2485 36.6293 11.0971 36.6269H10.6846C9.96602 36.5037 9.23176 36.5037 8.51322 36.6269C8.71236 36.2722 9.00408 35.9783 9.35725 35.7765C9.71041 35.5746 10.1118 35.4725 10.5184 35.481ZM7.96894 37.9446C8.41016 37.8 8.86875 37.7152 9.33249 37.6925L9.07467 38.506C9.01687 38.6872 8.91881 38.853 8.78784 38.9909C8.65687 39.1288 8.49639 39.2353 8.31842 39.3024C8.07371 39.398 7.80507 39.4141 7.55072 39.3482C7.2932 39.2846 7.05887 39.1495 6.87467 38.9586L6.57676 38.6435C7.00166 38.3396 7.47137 38.1038 7.96894 37.9446ZM3.89551 37.7555L4.01009 37.6467C4.37996 37.2762 4.86081 37.0368 5.37936 36.9649C5.8332 36.9234 6.28889 37.0214 6.68561 37.2456C6.20866 37.4844 5.76396 37.7828 5.36217 38.1336C5.1817 38.1785 5.0159 38.2693 4.88092 38.3972L4.68613 38.5805C4.57461 38.6726 4.43241 38.719 4.28806 38.7106C4.14372 38.7021 4.0079 38.6394 3.90786 38.535C3.80781 38.4306 3.75094 38.2923 3.74865 38.1477C3.74636 38.0031 3.79882 37.863 3.89551 37.7555ZM11.2231 47.9592C10.1125 48.3265 8.91125 48.3135 7.80888 47.9222C6.70651 47.531 5.76581 46.7838 5.13526 45.7985C4.5047 44.8133 4.2202 43.6461 4.32665 42.4812C4.43309 41.3163 4.92443 40.2201 5.72311 39.3654L6.0554 39.7149C6.38737 40.0681 6.81237 40.3203 7.28144 40.4425C7.46919 40.4871 7.6614 40.5101 7.85436 40.5113C8.15027 40.5129 8.44381 40.4585 8.71947 40.3508C9.05709 40.2219 9.36125 40.0184 9.60925 39.7555C9.85726 39.4927 10.0427 39.1772 10.1518 38.8326L10.5012 37.7498C11.6543 37.9596 12.7045 38.5482 13.4853 39.4223C14.2661 40.2963 14.7329 41.4059 14.8118 42.5753C14.8907 43.7447 14.5772 44.9069 13.921 45.878C13.2647 46.8491 12.3032 47.5734 11.1887 47.9363L11.2231 47.9592ZM13.5148 41.6571C13.6858 42.172 13.7533 42.7157 13.7136 43.2568C13.6739 43.7979 13.5276 44.3259 13.2833 44.8103C13.0389 45.2947 12.7013 45.7261 12.2897 46.0797C11.8782 46.4333 11.4008 46.7021 10.8851 46.8706C10.8281 46.8793 10.7702 46.8793 10.7132 46.8706C10.5613 46.8942 10.4062 46.8564 10.2821 46.7656C10.158 46.6748 10.075 46.5385 10.0515 46.3865C10.0279 46.2346 10.0657 46.0795 10.1565 45.9554C10.2473 45.8313 10.3837 45.7483 10.5356 45.7248C11.2858 45.4796 11.9081 44.9467 12.2658 44.2432C12.6235 43.5396 12.6874 42.7228 12.4434 41.9722C12.4145 41.8993 12.4009 41.8212 12.4034 41.7427C12.4058 41.6643 12.4244 41.5872 12.4579 41.5163C12.4915 41.4453 12.5392 41.382 12.5982 41.3303C12.6572 41.2785 12.7261 41.2395 12.8008 41.2155C12.8756 41.1915 12.9544 41.1831 13.0325 41.1908C13.1106 41.1986 13.1862 41.2223 13.2548 41.2605C13.3233 41.2986 13.3833 41.3505 13.431 41.4128C13.4787 41.4751 13.513 41.5466 13.532 41.6227L13.5148 41.6571ZM28.8689 14.9534C28.7443 14.8661 28.5901 14.8318 28.4403 14.8581C28.2904 14.8844 28.1571 14.9692 28.0697 15.0938C27.9824 15.2184 27.9481 15.3726 27.9744 15.5225C28.0007 15.6724 28.0855 15.8057 28.2101 15.893C28.5147 16.1071 28.7626 16.3922 28.9323 16.7236C29.1021 17.055 29.1884 17.4228 29.184 17.7951C28.8725 17.9684 28.6086 18.216 28.4157 18.5158C28.2228 18.8157 28.1069 19.1585 28.0783 19.5139L28.0268 20.2987C27.9695 21.0944 28.1812 21.8861 28.628 22.5469C29.0748 23.2077 29.7306 23.6992 30.4903 23.9425H30.5648C31.6527 24.296 32.7896 24.4758 33.9335 24.4753C34.8672 24.474 35.797 24.3547 36.7007 24.1201C36.9375 24.0583 37.1499 23.9258 37.3095 23.7402C37.469 23.5546 37.5682 23.3248 37.5937 23.0814C37.6192 22.838 37.5699 22.5925 37.4523 22.3779C37.3347 22.1632 37.1545 21.9895 36.9356 21.88L34.5637 20.6998C33.5407 20.1906 32.6724 19.4172 32.0486 18.4597C31.8627 18.1696 31.6092 17.929 31.3098 17.7583C31.0105 17.5877 30.6742 17.4922 30.3299 17.48C30.2866 16.9775 30.1333 16.4906 29.8809 16.054C29.6284 15.6173 29.2829 15.2416 28.8689 14.9534ZM31.0861 19.13C31.8217 20.2597 32.8464 21.1717 34.0538 21.7711L36.42 22.9514C36.4314 22.9551 36.4414 22.9624 36.4485 22.9722C36.4556 22.982 36.4594 22.9937 36.4594 23.0058C36.4594 23.0178 36.4556 23.0296 36.4485 23.0394C36.4414 23.0492 36.4314 23.0564 36.42 23.0602C34.6158 23.5335 32.7142 23.4839 30.9372 22.917H30.8627C30.3469 22.7508 29.9015 22.4169 29.5974 21.9684C29.2932 21.5199 29.1477 20.9826 29.184 20.442L29.2184 19.6112C29.2317 19.3976 29.3123 19.1936 29.4487 19.0285C29.5851 18.8634 29.7702 18.7457 29.9775 18.6923C30.1848 18.6389 30.4038 18.6525 30.6029 18.7311C30.8021 18.8097 30.9712 18.9493 31.0861 19.13ZM46.9559 47.2029C46.7354 45.1252 45.9265 43.1535 44.6242 41.5196C44.4713 41.328 44.2636 41.1876 44.0289 41.1172C43.7941 41.0468 43.5434 41.0499 43.3104 41.1259C43.0774 41.2019 42.8731 41.3473 42.725 41.5425C42.5768 41.7378 42.4919 41.9737 42.4814 42.2185L42.3955 44.8597C42.3443 46.002 41.9882 47.1098 41.3643 48.068C41.1765 48.3592 41.0613 48.6912 41.0284 49.0362C40.9955 49.3811 41.0458 49.7289 41.1752 50.0503C40.7238 50.2889 40.3312 50.6251 40.026 51.0344C39.7208 51.4436 39.5106 51.9158 39.4106 52.4165C39.382 52.5653 39.4136 52.7195 39.4984 52.8451C39.5833 52.9708 39.7144 53.0577 39.8632 53.0868H39.9721C40.1061 53.0895 40.2368 53.0451 40.3415 52.9613C40.4462 52.8776 40.5182 52.7598 40.545 52.6284C40.6167 52.2711 40.7727 51.9361 40.9999 51.6511C41.227 51.3662 41.5189 51.1395 41.8512 50.9899C42.223 51.2745 42.6778 51.4294 43.146 51.431C43.3999 51.4287 43.6516 51.3841 43.8908 51.2993L44.6299 50.9899C45.3792 50.7197 46.0171 50.2073 46.4425 49.5339C46.8679 48.8605 47.0567 48.0644 46.9788 47.2717L46.9559 47.2029ZM44.2403 49.9357L43.4955 50.205C43.3063 50.2754 43.1003 50.2874 42.9041 50.2394C42.708 50.1914 42.5308 50.0856 42.3955 49.9357C42.2454 49.7689 42.1544 49.5572 42.1368 49.3335C42.1192 49.1098 42.1759 48.8865 42.2981 48.6982C43.0424 47.5692 43.4716 46.2618 43.5413 44.9113L43.6559 42.2701C43.6556 42.2582 43.6595 42.2466 43.6668 42.2372C43.6741 42.2278 43.6844 42.2212 43.696 42.2185C43.7021 42.215 43.709 42.2132 43.7161 42.2132C43.7231 42.2132 43.73 42.215 43.7361 42.2185C44.9059 43.6863 45.6333 45.457 45.833 47.3232V47.3977C45.8905 47.9381 45.7648 48.4821 45.4759 48.9424C45.1871 49.4027 44.7519 49.7525 44.2403 49.9357ZM29.0064 11.3154C29.3061 11.3919 29.6139 11.4323 29.9231 11.4357C30.1772 11.4497 30.4314 11.4122 30.6706 11.3256C30.9098 11.239 31.1291 11.1049 31.3153 10.9316C32.4268 9.8201 31.4757 7.45969 30.6106 6.60031C30.3727 6.36178 30.0901 6.17253 29.7789 6.0434C29.4678 5.91427 29.1342 5.8478 28.7973 5.8478C28.4604 5.8478 28.1269 5.91427 27.8157 6.0434C27.5046 6.17253 27.2219 6.36178 26.984 6.60031C26.5037 7.08152 26.2339 7.73367 26.2339 8.41359C26.2339 9.09352 26.5037 9.74566 26.984 10.2269C27.5565 10.7532 28.2518 11.1275 29.0064 11.3154ZM27.7919 7.40812C28.0599 7.14396 28.421 6.99588 28.7973 6.99588C29.1736 6.99588 29.5348 7.14396 29.8028 7.40812C30.4617 8.06698 30.9486 9.66541 30.5075 10.1237C30.324 10.2274 30.1196 10.2885 29.9093 10.3024C29.6991 10.3162 29.4884 10.2826 29.2929 10.204C28.7376 10.0645 28.2232 9.79551 27.7919 9.41906C27.5277 9.15107 27.3796 8.78989 27.3796 8.41359C27.3796 8.0373 27.5277 7.67611 27.7919 7.40812ZM1.25436 13.0514C1.25436 12.938 1.28796 12.8273 1.35091 12.7331C1.41387 12.6388 1.50335 12.5654 1.60803 12.522C1.71272 12.4787 1.82791 12.4673 1.93905 12.4894C2.05018 12.5116 2.15227 12.5661 2.23239 12.6462C2.31251 12.7264 2.36708 12.8284 2.38919 12.9396C2.41129 13.0507 2.39995 13.1659 2.35658 13.2706C2.31322 13.3753 2.23979 13.4648 2.14557 13.5277C2.05136 13.5907 1.94059 13.6243 1.82728 13.6243C1.67533 13.6243 1.52961 13.5639 1.42216 13.4565C1.31472 13.349 1.25436 13.2033 1.25436 13.0514Z" fill="#F7C35F"/>
</g>
<defs>
<clipPath id="clip0_349_14790">
<rect width="55" height="55" fill="white"/>
</clipPath>
</defs>
</svg>
