<svg width="124" height="79" viewBox="0 0 124 79" fill="none" xmlns="http://www.w3.org/2000/svg">
<path d="M60.6286 9.93926C60.6286 9.95558 60.6286 9.97191 60.6286 9.98823C60.6286 11.8221 61.0395 13.6342 61.5592 15.0599C60.9497 13.928 60.3212 11.969 60.3212 9.97735C60.3212 9.96374 60.3212 9.95014 60.3212 9.93926C60.3212 9.92565 60.3212 9.91205 60.3212 9.89844C60.3212 7.90406 61.2082 5.94233 61.8313 4.81046C61.2082 6.23618 60.6286 8.05099 60.6286 9.88756C60.6286 9.90388 60.6286 9.92021 60.6286 9.93926ZM64.1712 0C64.1712 0 59.7552 4.87032 59.7552 9.87123C59.7552 9.893 59.7552 9.91477 59.7552 9.93381C59.7552 9.95558 59.7552 9.97735 59.7552 9.99911C59.7552 15 62.8951 19.8703 64.1712 19.8703C65.4473 19.8703 68.5871 15 68.5871 9.99911C68.5871 9.97735 68.5871 9.95558 68.5871 9.93381C68.5871 9.91477 68.5871 9.893 68.5871 9.87123C68.5871 4.87032 64.1712 0 64.1712 0Z" fill="#487307"/>
<path d="M60.3212 31.7034C60.3212 31.6897 60.3212 31.6789 60.3212 31.6653C60.3212 31.6517 60.3212 31.6381 60.3212 31.6244C60.3212 29.6328 60.9497 27.6765 61.5592 26.5446C61.0395 27.9676 60.6286 29.7797 60.6286 31.6136C60.6286 31.6299 60.6286 31.6489 60.6286 31.6653C60.6286 31.6816 60.6286 31.6979 60.6286 31.717C60.6286 33.5508 61.2082 35.3656 61.8313 36.7913C61.2082 35.6595 60.3212 33.6977 60.3212 31.7034ZM64.1712 21.7314C62.8951 21.7314 59.7552 26.6045 59.7552 31.6027C59.7552 31.6244 59.7552 31.6462 59.7552 31.668C59.7552 31.6897 59.7552 31.7115 59.7552 31.7306C59.7552 36.7315 64.1712 41.6045 64.1712 41.6045C64.1712 41.6045 68.5871 36.7315 68.5871 31.7306C68.5871 31.7115 68.5871 31.6897 68.5871 31.668C68.5871 31.6462 68.5871 31.6244 68.5871 31.6027C68.5871 26.6045 65.4473 21.7314 64.1712 21.7314Z" fill="#487307"/>
<path d="M48.4012 23.2794C48.4148 23.2931 48.4257 23.3039 48.4393 23.3175C48.4502 23.3284 48.4638 23.342 48.4747 23.3529C49.7698 24.6508 51.3424 25.6411 52.7165 26.2805C51.4866 25.9105 49.6582 24.9691 48.2488 23.5624C48.2407 23.5515 48.2298 23.5434 48.2216 23.5352C48.2107 23.5243 48.2026 23.5162 48.1944 23.5053C46.7823 22.0959 46.0232 20.0797 45.664 18.8417C46.23 20.2892 47.1033 21.9816 48.4012 23.2794ZM47.8189 23.9325C47.8353 23.9461 47.8489 23.9624 47.8652 23.976C51.3996 27.5131 57.0644 28.7375 57.9677 27.8341C58.8683 26.9335 57.6439 21.266 54.1095 17.7316C54.0932 17.718 54.0796 17.7017 54.0633 17.6881C54.0497 17.6718 54.0333 17.6555 54.0197 17.6419C50.4826 14.1048 43.9172 13.7837 43.9172 13.7837C43.9172 13.7837 44.2383 20.3518 47.7727 23.8862C47.789 23.9025 47.8026 23.9161 47.8189 23.9325Z" fill="#487307"/>
<path d="M48.7194 36.1708C48.7086 36.1627 48.7004 36.1518 48.6895 36.1436C48.6813 36.1354 48.6732 36.1246 48.6623 36.1164C47.2529 34.7043 46.4938 32.6909 46.1346 31.4501C46.7006 32.9004 47.574 34.5927 48.8718 35.8906C48.8827 35.9015 48.8963 35.9151 48.9072 35.9259C48.9208 35.9368 48.9317 35.9504 48.9453 35.9613C50.2404 37.2592 51.813 38.2495 53.1871 38.8889C51.9573 38.5189 50.1261 37.5802 48.7194 36.1708ZM54.5339 30.2965C54.5176 30.2802 54.504 30.2666 54.4876 30.2503C50.9533 26.7159 44.3851 26.3921 44.3851 26.3921C44.3851 26.3921 44.7089 32.9602 48.2433 36.4946C48.2596 36.5109 48.2732 36.5272 48.2895 36.5409C48.3032 36.5572 48.3195 36.5708 48.3331 36.5871C51.8702 40.1215 57.535 41.3459 58.4356 40.4425C59.3389 39.5419 58.1145 33.8771 54.5801 30.3428C54.5638 30.3264 54.5475 30.3128 54.5339 30.2965Z" fill="#EEC044"/>
<path d="M74.4887 18.118C74.4968 18.1071 74.5077 18.099 74.5159 18.0881C74.5268 18.0799 74.5349 18.069 74.5458 18.0609C75.9552 16.6515 77.9686 15.8923 79.2093 15.5305C77.7619 16.0964 76.0695 16.9725 74.7716 18.2704C74.758 18.2813 74.7472 18.2949 74.7335 18.3057C74.7227 18.3193 74.7091 18.3302 74.6982 18.3411C73.4003 19.639 72.4099 21.2116 71.7705 22.5856C72.1406 21.3531 73.082 19.5247 74.4887 18.118ZM80.3194 23.976C80.3331 23.9624 80.3494 23.9461 80.363 23.9325C80.3793 23.9161 80.3929 23.9025 80.4092 23.8862C83.9436 20.3518 84.2674 13.7837 84.2674 13.7837C84.2674 13.7837 77.6993 14.1048 74.1649 17.6419C74.1486 17.6555 74.135 17.6718 74.1186 17.6881C74.105 17.7017 74.0887 17.718 74.0724 17.7316C70.538 21.266 69.3136 26.9335 70.2169 27.8341C71.1175 28.7375 76.7823 27.5131 80.3194 23.976Z" fill="#487307"/>
<path d="M74.5159 30.6992C74.5268 30.6883 74.5349 30.6801 74.5458 30.6693C75.9552 29.2599 77.9686 28.5007 79.2093 28.1416C77.7619 28.7075 76.0695 29.5809 74.7716 30.8788C74.758 30.8924 74.7472 30.9033 74.7335 30.9141C74.7227 30.9277 74.7091 30.9386 74.6982 30.9522C73.4003 32.2474 72.4099 33.82 71.7705 35.194C72.1406 33.9642 73.082 32.1358 74.4887 30.7264C74.4968 30.7155 74.5077 30.7074 74.5159 30.6992ZM74.1186 30.2965C74.105 30.3128 74.0887 30.3264 74.0724 30.3428C70.538 33.8771 69.3136 39.5419 70.2169 40.4425C71.1175 41.3459 76.7823 40.1215 80.3194 36.5871C80.3331 36.5708 80.3494 36.5572 80.363 36.5409C80.3793 36.5272 80.3929 36.5109 80.4092 36.4946C83.9436 32.9602 84.2674 26.3921 84.2674 26.3921C84.2674 26.3921 77.6993 26.7159 74.1649 30.2503C74.1486 30.2666 74.135 30.2802 74.1186 30.2965Z" fill="#EEC044"/>
</svg>
