<svg width="12" height="2" viewBox="0 0 12 2" fill="none" xmlns="http://www.w3.org/2000/svg">
<path d="M9.33333 1C9.33333 0.802219 9.41153 0.608879 9.55804 0.44443C9.70455 0.279981 9.91279 0.151808 10.1564 0.0761208C10.4001 0.000433155 10.6681 -0.0193701 10.9268 0.0192151C11.1854 0.0578003 11.423 0.153041 11.6095 0.292894C11.7959 0.432746 11.9229 0.610929 11.9744 0.80491C12.0258 0.998891 11.9994 1.19996 11.8985 1.38268C11.7976 1.56541 11.6267 1.72159 11.4074 1.83147C11.1882 1.94135 10.9304 2 10.6667 2C10.313 2 9.97391 1.89464 9.72386 1.70711C9.47381 1.51957 9.33333 1.26522 9.33333 1ZM2.66667 1C2.66667 1.19778 2.58847 1.39112 2.44196 1.55557C2.29545 1.72002 2.08721 1.84819 1.84358 1.92388C1.59994 1.99957 1.33186 2.01937 1.07321 1.98078C0.814573 1.9422 0.576995 1.84696 0.390525 1.70711C0.204055 1.56725 0.0770667 1.38907 0.0256197 1.19509C-0.0258272 1.00111 0.000577241 0.800043 0.101494 0.617317C0.202411 0.434591 0.373307 0.278412 0.592572 0.168531C0.811838 0.0586494 1.06962 4.76837e-07 1.33333 4.76837e-07C1.68696 4.76837e-07 2.02609 0.105357 2.27614 0.292894C2.52619 0.48043 2.66667 0.734784 2.66667 1ZM7.33333 1C7.33333 1.19778 7.25513 1.39112 7.10863 1.55557C6.96212 1.72002 6.75388 1.84819 6.51024 1.92388C6.26661 1.99957 5.99852 2.01937 5.73988 1.98078C5.48124 1.9422 5.24366 1.84696 5.05719 1.70711C4.87072 1.56725 4.74373 1.38907 4.69229 1.19509C4.64084 1.00111 4.66724 0.800043 4.76816 0.617317C4.86908 0.434591 5.03997 0.278412 5.25924 0.168531C5.4785 0.0586494 5.73629 4.76837e-07 6 4.76837e-07C6.35362 4.76837e-07 6.69276 0.105357 6.94281 0.292894C7.19286 0.48043 7.33333 0.734784 7.33333 1Z" fill="white"/>
</svg>
